<svg width="17" height="21" viewBox="0 0 17 21" fill="none" xmlns="http://www.w3.org/2000/svg">
<path d="M8.5 18.1579L13.0375 13.6204C13.9348 12.723 14.5459 11.5797 14.7934 10.335C15.041 9.09029 14.9138 7.80015 14.4282 6.6277C13.9425 5.45524 13.12 4.45313 12.0648 3.74809C11.0096 3.04305 9.76907 2.66673 8.5 2.66673C7.23093 2.66673 5.99036 3.04305 4.93516 3.74809C3.87996 4.45313 3.05752 5.45524 2.57184 6.6277C2.08616 7.80015 1.95905 9.09029 2.20658 10.335C2.45412 11.5797 3.06518 12.723 3.9625 13.6204L8.5 18.1579ZM8.5 20.7503L2.66634 14.9166C1.51256 13.7628 0.726838 12.2928 0.408518 10.6925C0.0901979 9.09212 0.253581 7.43333 0.878007 5.92585C1.50243 4.41836 2.55986 3.12989 3.91656 2.22338C5.27326 1.31686 6.86831 0.833008 8.5 0.833008C10.1317 0.833008 11.7267 1.31686 13.0834 2.22338C14.4401 3.12989 15.4976 4.41836 16.122 5.92585C16.7464 7.43333 16.9098 9.09212 16.5915 10.6925C16.2732 12.2928 15.4874 13.7628 14.3337 14.9166L8.5 20.7503ZM8.5 10.9163C8.98623 10.9163 9.45255 10.7231 9.79636 10.3793C10.1402 10.0355 10.3333 9.56917 10.3333 9.08294C10.3333 8.59671 10.1402 8.13039 9.79636 7.78657C9.45255 7.44276 8.98623 7.2496 8.5 7.2496C8.01377 7.2496 7.54746 7.44276 7.20364 7.78657C6.85982 8.13039 6.66667 8.59671 6.66667 9.08294C6.66667 9.56917 6.85982 10.0355 7.20364 10.3793C7.54746 10.7231 8.01377 10.9163 8.5 10.9163ZM8.5 12.7496C7.52754 12.7496 6.59491 12.3633 5.90728 11.6757C5.21964 10.988 4.83334 10.0554 4.83334 9.08294C4.83334 8.11048 5.21964 7.17784 5.90728 6.49021C6.59491 5.80258 7.52754 5.41627 8.5 5.41627C9.47246 5.41627 10.4051 5.80258 11.0927 6.49021C11.7804 7.17784 12.1667 8.11048 12.1667 9.08294C12.1667 10.0554 11.7804 10.988 11.0927 11.6757C10.4051 12.3633 9.47246 12.7496 8.5 12.7496Z" fill="white"/>
</svg>
