<svg width="23" height="30" viewBox="0 0 23 30" fill="none" xmlns="http://www.w3.org/2000/svg">
<path d="M20.95 9.61441C21.3266 9.61441 21.5205 9.16046 21.2795 8.87697L21.3848 8.98498C21.7787 9.38892 22 9.93682 22 10.5081V26.8461C22 28.0357 21.0598 29 19.9 29H3.1C1.9402 29 1 28.0357 1 26.8461L1 3.15386C1 1.96423 1.94034 0.999869 3.10023 1L12.7296 1.00109C13.2864 1.00115 13.8204 1.22801 14.2142 1.6318L14.3106 1.73062C14.0337 1.49479 13.6 1.6935 13.6 2.07588M20.95 9.61441H15.7C14.5402 9.61441 13.6 8.65009 13.6 7.46054V2.07588M20.95 9.61441C21.3375 9.61441 21.5315 9.13354 21.2575 8.85253L14.3424 1.76008C14.0685 1.47908 13.6 1.67847 13.6 2.07588" stroke="white" stroke-width="2" stroke-linecap="round" stroke-linejoin="round"/>
</svg>
