<svg width="165" height="138" viewBox="0 0 165 138" fill="none" xmlns="http://www.w3.org/2000/svg">
<g clip-path="url(#clip0)">
<path fill-rule="evenodd" clip-rule="evenodd" d="M56.7544 36.3564C52.4424 38.7044 48.5019 41.6698 45.0593 45.1573C41.7243 48.5832 38.7929 52.3752 36.3218 56.4598C33.74 60.7522 31.8476 65.4179 30.7126 70.2891C29.5041 75.1917 29.0615 80.2497 29.4003 85.2859L25.04 85.625C24.6645 80.1395 25.1418 74.6293 26.4551 69.288C27.6987 63.9723 29.7703 58.8819 32.595 54.2007C35.2376 49.8315 38.3761 45.7777 41.9488 42.1188C45.6864 38.3268 49.9666 35.1028 54.6511 32.5508L56.7544 36.3564Z" fill="white"/>
<path fill-rule="evenodd" clip-rule="evenodd" d="M110.705 32.6201C115.336 35.169 119.568 38.3761 123.266 42.1398C126.805 45.7808 129.917 49.8091 132.541 54.1473C135.366 58.8273 137.437 63.9167 138.681 69.2316C139.995 74.5734 140.472 80.0846 140.096 85.5708L135.733 85.2295C136.075 80.193 135.632 75.1343 134.42 70.2319C133.287 65.3606 131.395 60.6949 128.812 56.4033C126.361 52.3503 123.456 48.5858 120.152 45.1814C116.748 41.7118 112.851 38.756 108.584 36.4081L110.705 32.6201Z" fill="white"/>
<path fill-rule="evenodd" clip-rule="evenodd" d="M99.6379 11.3984C95.6731 7.46181 90.4565 5.01227 84.8771 4.46713C79.2976 3.92199 73.7004 5.31496 69.0392 8.40872C64.3779 11.5025 60.9409 16.1056 59.3139 21.4339C57.6868 26.7621 57.9703 32.4858 60.1161 37.6297C62.2618 42.7736 66.1371 47.0195 71.0816 49.644C76.0261 52.2685 81.7339 53.1092 87.2326 52.0228C92.7312 50.9365 97.6805 47.9903 101.237 43.6863C104.794 39.3823 106.738 33.9867 106.738 28.4188C106.742 25.2571 106.117 22.1257 104.899 19.2047C103.68 16.2836 101.892 13.6307 99.6379 11.3984ZM82.5004 3.05859e-05C89.1209 -8.43059e-05 95.5366 2.2796 100.654 6.45064C105.772 10.6217 109.275 16.426 110.567 22.8746C111.859 29.3233 110.859 36.0172 107.738 41.8158C104.617 47.6145 99.5685 52.1591 93.452 54.6753C87.3355 57.1915 80.5297 57.5236 74.1943 55.615C67.8589 53.7064 62.3858 49.6752 58.7077 44.2084C55.0295 38.7415 53.3738 32.1771 54.0227 25.6338C54.6716 19.0905 57.585 12.9731 62.2664 8.32385C64.9202 5.68042 68.0741 3.58416 71.5466 2.15564C75.0191 0.727125 78.7418 -0.00545549 82.5004 3.05859e-05Z" fill="white"/>
<path fill-rule="evenodd" clip-rule="evenodd" d="M85.9215 18.2329C85.1296 17.4447 84.0871 16.9537 82.9715 16.8435C81.856 16.7332 80.7365 17.0106 79.8038 17.6284C78.8712 18.2461 78.1831 19.166 77.8569 20.2312C77.5307 21.2964 77.5866 22.4409 78.015 23.4698C78.4434 24.4986 79.2179 25.3481 80.2063 25.8733C81.1948 26.3986 82.3361 26.5671 83.4357 26.3503C84.5352 26.1334 85.5251 25.5445 86.2364 24.6839C86.9477 23.8234 87.3365 22.7445 87.3365 21.6311C87.3378 21 87.2135 20.3749 86.9706 19.7917C86.7278 19.2085 86.3712 18.6787 85.9215 18.2329ZM82.5004 12.4766C84.6335 12.4762 86.7007 13.2104 88.3498 14.554C89.9989 15.8977 91.1278 17.7676 91.5442 19.8453C91.9606 21.9229 91.6388 24.0797 90.6335 25.9481C89.6282 27.8164 88.0016 29.2808 86.031 30.0917C84.0603 30.9025 81.8676 31.0097 79.8263 30.3949C77.7851 29.7801 76.0216 28.4813 74.8365 26.72C73.6513 24.9587 73.1178 22.8437 73.3269 20.7355C73.5359 18.6273 74.4745 16.6563 75.9828 15.1583C76.8378 14.307 77.8537 13.6318 78.9722 13.1715C80.0907 12.7113 81.2897 12.4751 82.5004 12.4766Z" fill="white"/>
<path fill-rule="evenodd" clip-rule="evenodd" d="M87.6022 34.103C85.8373 32.275 83.8305 30.8512 82.5367 30.8512C81.2329 30.8512 79.2053 32.2811 77.4249 34.1145C75.5851 36.0084 74.1515 38.187 74.1515 39.5563C74.1515 39.9275 75.2344 40.0089 76.5444 40.0089C77.5369 40.0089 78.5781 39.9337 79.5823 39.8616C80.6297 39.7841 81.6377 39.712 82.5004 39.712C83.3632 39.712 84.3735 39.7841 85.4178 39.8616C86.4227 39.9337 87.4631 40.0089 88.4565 40.0089C89.7657 40.0089 90.8487 39.9275 90.8487 39.5563C90.8487 38.1809 89.4274 35.9962 87.6022 34.103ZM82.5367 26.501C85.0803 26.501 88.2572 28.5169 90.749 31.0974C93.2686 33.7071 95.2267 37.0394 95.2267 39.5563C95.2267 43.4907 92.1617 44.3568 88.4565 44.3568C87.3913 44.3568 86.2296 44.2724 85.1104 44.1919C84.1835 44.1259 83.2875 44.0599 82.5004 44.0599C81.7126 44.0599 80.8166 44.1259 79.8905 44.1919C78.7712 44.2724 77.6095 44.3568 76.5444 44.3568C72.8391 44.3568 69.7734 43.4907 69.7734 39.5563C69.7734 37.0394 71.7469 33.7133 74.2781 31.109C76.7916 28.5231 79.9932 26.501 82.5367 26.501Z" fill="white"/>
<path fill-rule="evenodd" clip-rule="evenodd" d="M116.272 126.746C111.395 130.346 105.96 133.132 100.181 134.995C94.2265 136.8 88.025 137.673 81.7999 137.581V137.59C76.2649 137.522 70.7774 136.567 65.5491 134.761C59.6831 132.766 54.0935 130.045 48.9122 126.662L51.3082 123.042C56.1745 126.22 61.4244 128.776 66.9341 130.65C71.7167 132.303 76.7365 133.178 81.7999 133.242V133.251C87.5794 133.336 93.3369 132.526 98.8655 130.851C104.195 129.127 109.207 126.554 113.704 123.231L116.272 126.746Z" fill="white"/>
<path fill-rule="evenodd" clip-rule="evenodd" d="M45.753 92.5612C41.7882 88.6247 36.5716 86.1751 30.9921 85.63C25.4126 85.0849 19.8154 86.4779 15.1541 89.5717C10.4929 92.6655 7.05593 97.2687 5.42892 102.597C3.80192 107.925 4.08551 113.649 6.23136 118.793C8.37722 123.937 12.2526 128.183 17.1971 130.807C22.1417 133.431 27.8496 134.272 33.3483 133.186C38.8469 132.099 43.7962 129.153 47.3527 124.849C50.9093 120.545 52.8531 115.149 52.853 109.581C52.8574 106.419 52.2324 103.288 51.0139 100.367C49.7955 97.4462 48.0075 94.7934 45.753 92.5612ZM28.6155 81.1621C35.2367 81.1614 41.6534 83.4408 46.772 87.6119C51.8907 91.783 55.3947 97.5877 56.6869 104.037C57.9792 110.486 56.9798 117.181 53.859 122.98C50.7382 128.78 45.6891 133.325 39.572 135.842C33.4549 138.359 26.6484 138.691 20.3122 136.782C13.9761 134.874 8.50229 130.842 4.82359 125.375C1.1449 119.908 -0.511089 113.343 0.137813 106.799C0.786715 100.255 3.70035 94.1364 8.38225 89.4867C11.0359 86.8433 14.1897 84.7469 17.6621 83.3183C21.1345 81.8897 24.857 81.1569 28.6155 81.1621Z" fill="white"/>
<path fill-rule="evenodd" clip-rule="evenodd" d="M32.0373 99.396C31.2456 98.608 30.2032 98.1172 29.0879 98.007C27.9726 97.8969 26.8533 98.1743 25.9209 98.7919C24.9884 99.4096 24.3005 100.329 23.9744 101.394C23.6483 102.459 23.7042 103.604 24.1325 104.632C24.5608 105.661 25.3351 106.51 26.3233 107.035C27.3116 107.56 28.4527 107.729 29.552 107.512C30.6514 107.295 31.641 106.707 32.3522 105.846C33.0635 104.986 33.4522 103.907 33.4523 102.794C33.4535 102.163 33.3291 101.538 33.0862 100.955C32.8434 100.372 32.4869 99.8419 32.0373 99.396ZM28.6155 93.6397C30.7485 93.6393 32.8157 94.3735 34.4648 95.7171C36.1139 97.0608 37.2428 98.9307 37.6592 101.008C38.0756 103.086 37.7537 105.243 36.7484 107.111C35.7431 108.979 34.1166 110.444 32.146 111.255C30.1754 112.065 27.9826 112.173 25.9414 111.558C23.9001 110.943 22.1367 109.644 20.9516 107.883C19.7665 106.122 19.2329 104.007 19.442 101.899C19.651 99.7904 20.5896 97.8194 22.0979 96.3214C22.9528 95.4701 23.9687 94.7949 25.0872 94.3346C26.2057 93.8744 27.4048 93.6382 28.6155 93.6397Z" fill="white"/>
<path fill-rule="evenodd" clip-rule="evenodd" d="M33.7173 115.266C31.9523 113.441 29.9464 112.015 28.6518 112.015C27.348 112.015 25.3204 113.444 23.5407 115.278C21.7001 117.172 20.2665 119.351 20.2665 120.72C20.2665 121.091 21.3502 121.173 22.6594 121.173C23.6489 121.173 24.6932 121.097 25.6981 121.025C26.7416 120.948 27.7527 120.876 28.6155 120.876C29.4783 120.876 30.4863 120.948 31.5329 121.025C32.5378 121.097 33.579 121.173 34.5715 121.173C35.8808 121.173 36.9645 121.091 36.9645 120.72C36.9645 119.345 35.5432 117.16 33.7173 115.266ZM28.6518 107.667C31.1953 107.667 34.3723 109.681 36.8648 112.26C39.3837 114.871 41.3425 118.202 41.3425 120.72C41.3425 124.654 38.2768 125.521 34.5715 125.521C33.5064 125.521 32.3447 125.436 31.2255 125.356C30.2993 125.29 29.4033 125.224 28.6155 125.224C27.8276 125.224 26.9316 125.29 26.0055 125.356C24.8863 125.436 23.7246 125.521 22.6594 125.521C18.9542 125.521 15.8885 124.654 15.8885 120.72C15.8885 118.202 17.862 114.877 20.3932 112.273C22.9066 109.687 26.1082 107.667 28.6518 107.667Z" fill="white"/>
<path fill-rule="evenodd" clip-rule="evenodd" d="M153.523 92.5613C149.558 88.624 144.341 86.1739 138.761 85.6283C133.181 85.0828 127.583 86.4756 122.921 89.5694C118.26 92.6632 114.822 97.2667 113.195 102.595C111.567 107.924 111.851 113.648 113.996 118.793C116.142 123.937 120.018 128.184 124.963 130.808C129.908 133.433 135.616 134.274 141.115 133.187C146.614 132.101 151.564 129.154 155.121 124.85C158.678 120.545 160.622 115.149 160.622 109.581C160.626 106.419 160.001 103.288 158.783 100.367C157.565 97.4465 155.777 94.7936 153.523 92.5613ZM136.385 81.1621C143.005 81.1615 149.422 83.4409 154.54 87.6118C159.658 91.7828 163.162 97.5872 164.454 104.036C165.746 110.485 164.747 117.179 161.626 122.978C158.505 128.778 153.457 133.323 147.34 135.839C141.223 138.356 134.417 138.688 128.081 136.78C121.745 134.871 116.272 130.84 112.593 125.373C108.915 119.906 107.259 113.341 107.908 106.798C108.556 100.254 111.47 94.1363 116.151 89.4867C118.805 86.8433 121.959 84.747 125.431 83.3183C128.903 81.8897 132.626 81.1569 136.385 81.1621Z" fill="white"/>
<path fill-rule="evenodd" clip-rule="evenodd" d="M139.806 99.396C139.015 98.6107 137.974 98.1222 136.86 98.0137C135.747 97.9053 134.63 98.1836 133.7 98.8012C132.77 99.4188 132.084 100.338 131.76 101.401C131.435 102.464 131.492 103.606 131.92 104.633C132.349 105.659 133.122 106.506 134.109 107.03C135.096 107.554 136.235 107.721 137.332 107.505C138.429 107.288 139.417 106.7 140.127 105.841C140.836 104.982 141.224 103.905 141.224 102.794C141.225 102.163 141.1 101.538 140.857 100.954C140.614 100.371 140.257 99.8416 139.806 99.396ZM136.385 93.6397C138.516 93.6396 140.582 94.3736 142.23 95.7166C143.878 97.0595 145.006 98.9284 145.422 101.005C145.838 103.081 145.516 105.236 144.511 107.104C143.507 108.971 141.881 110.434 139.912 111.245C137.943 112.055 135.751 112.162 133.711 111.548C131.671 110.934 129.909 109.636 128.724 107.876C127.54 106.116 127.006 104.002 127.215 101.896C127.423 99.7887 128.361 97.8188 129.868 96.3214C130.722 95.47 131.738 94.7948 132.857 94.3345C133.975 93.8743 135.174 93.6381 136.385 93.6397Z" fill="white"/>
<path fill-rule="evenodd" clip-rule="evenodd" d="M141.487 115.266C139.722 113.441 137.718 112.015 136.421 112.015C135.118 112.015 133.09 113.444 131.31 115.278C129.469 117.172 128.036 119.351 128.036 120.72C128.036 121.091 129.119 121.173 130.428 121.173C131.422 121.173 132.462 121.097 133.467 121.025C134.514 120.948 135.522 120.876 136.384 120.876C137.248 120.876 138.258 120.948 139.303 121.025C140.308 121.097 141.351 121.173 142.34 121.173C143.65 121.173 144.733 121.091 144.733 120.72C144.733 119.345 143.312 117.16 141.487 115.266ZM136.421 107.667C138.964 107.667 142.142 109.681 144.634 112.26C147.153 114.871 149.115 118.202 149.115 120.72C149.115 124.654 146.049 125.521 142.34 125.521C141.275 125.521 140.114 125.436 138.994 125.356C138.068 125.29 137.175 125.224 136.384 125.224C135.597 125.224 134.701 125.29 133.775 125.356C132.655 125.436 131.494 125.521 130.428 125.521C126.724 125.521 123.658 124.654 123.658 120.72C123.658 118.202 125.632 114.877 128.163 112.273C130.676 109.687 133.877 107.667 136.421 107.667H136.421Z" fill="white"/>
</g>
<defs>
<clipPath id="clip0">
<rect width="165" height="138" fill="white"/>
</clipPath>
</defs>
</svg>
