<svg width="93" height="78" viewBox="0 0 93 78" fill="none" xmlns="http://www.w3.org/2000/svg">
<g clip-path="url(#clip0)">
<path fill-rule="evenodd" clip-rule="evenodd" d="M31.9888 20.5489C29.5584 21.8761 27.3374 23.5522 25.3971 25.5234C23.5173 27.4598 21.8651 29.603 20.4723 31.9117C19.0171 34.3379 17.9504 36.975 17.3107 39.7283C16.6296 42.4994 16.3801 45.3582 16.571 48.2048L14.1134 48.3964C13.9018 45.2959 14.1708 42.1814 14.911 39.1625C15.612 36.1579 16.7796 33.2807 18.3717 30.6348C19.8612 28.1653 21.6301 25.8741 23.6439 23.806C25.7505 21.6627 28.163 19.8404 30.8034 18.3979L31.9888 20.5489Z" fill="#EB5757"/>
<path fill-rule="evenodd" clip-rule="evenodd" d="M62.3974 18.437C65.0078 19.8777 67.3929 21.6904 69.4772 23.8177C71.4721 25.8757 73.2259 28.1525 74.705 30.6045C76.2971 33.2498 77.4648 36.1264 78.1657 39.1304C78.9063 42.1498 79.1754 45.2647 78.9632 48.3657L76.5043 48.1727C76.6966 45.326 76.447 42.4668 75.7642 39.6958C75.1253 36.9425 74.0588 34.3054 72.6031 31.8797C71.2215 29.5889 69.5842 27.4611 67.7223 25.5369C65.8035 23.5758 63.6068 21.9051 61.2019 20.578L62.3974 18.437Z" fill="#EB5757"/>
<path fill-rule="evenodd" clip-rule="evenodd" d="M56.1595 6.44257C53.9248 4.21754 50.9846 2.83302 47.8398 2.5249C44.695 2.21677 41.5402 3.00411 38.913 4.75275C36.2857 6.5014 34.3485 9.10318 33.4314 12.1148C32.5144 15.1264 32.6742 18.3615 33.8836 21.2689C35.093 24.1764 37.2773 26.5762 40.0642 28.0596C42.8511 29.5431 46.0682 30.0182 49.1674 29.4042C52.2667 28.7902 55.0563 27.125 57.0609 24.6923C59.0656 22.2596 60.1613 19.2099 60.1613 16.0628C60.1639 14.2757 59.8116 12.5058 59.1248 10.8548C58.438 9.2038 57.4303 7.7043 56.1595 6.44257ZM46.5002 1.72877e-05C50.2318 -4.76512e-05 53.8479 1.28847 56.7325 3.64602C59.617 6.00356 61.5915 9.28427 62.3196 12.9291C63.0476 16.574 62.4841 20.3575 60.7251 23.635C58.9661 26.9125 56.1204 29.4812 52.6729 30.9034C49.2254 32.3256 45.3895 32.5133 41.8186 31.4346C38.2477 30.3558 35.1629 28.0773 33.0897 24.9873C31.0166 21.8974 30.0834 18.1871 30.4491 14.4887C30.8149 10.7903 32.457 7.3326 35.0956 4.70478C36.5914 3.21067 38.369 2.02583 40.3262 1.21841C42.2835 0.410983 44.3817 -0.00308354 46.5002 1.72877e-05Z" fill="#EB5757"/>
<path fill-rule="evenodd" clip-rule="evenodd" d="M48.4285 10.3058C47.9822 9.86035 47.3946 9.5828 46.7658 9.52049C46.137 9.45819 45.506 9.61498 44.9804 9.96415C44.4547 10.3133 44.0669 10.8332 43.883 11.4353C43.6991 12.0374 43.7307 12.6843 43.9721 13.2658C44.2136 13.8473 44.6501 14.3275 45.2072 14.6243C45.7644 14.9212 46.4076 15.0165 47.0274 14.8939C47.6472 14.7713 48.2051 14.4384 48.606 13.9521C49.0069 13.4657 49.2261 12.8559 49.2261 12.2266C49.2268 11.8699 49.1567 11.5165 49.0198 11.1869C48.883 10.8572 48.682 10.5578 48.4285 10.3058ZM46.5003 7.05225C47.7025 7.05204 48.8677 7.46702 49.7972 8.22647C50.7267 8.98592 51.363 10.0429 51.5977 11.2172C51.8324 12.3915 51.651 13.6105 51.0843 14.6666C50.5177 15.7226 49.6009 16.5503 48.4902 17.0086C47.3795 17.4669 46.1436 17.5275 44.9931 17.18C43.8425 16.8325 42.8486 16.0984 42.1806 15.1029C41.5126 14.1073 41.2119 12.9119 41.3297 11.7203C41.4475 10.5287 41.9766 9.4147 42.8267 8.56804C43.3086 8.08682 43.8812 7.70519 44.5116 7.44506C45.142 7.18493 45.8179 7.05144 46.5003 7.05225Z" fill="#EB5757"/>
<path fill-rule="evenodd" clip-rule="evenodd" d="M49.3758 19.2758C48.381 18.2426 47.2499 17.4378 46.5207 17.4378C45.7858 17.4378 44.643 18.246 43.6395 19.2823C42.6025 20.3528 41.7945 21.5841 41.7945 22.3581C41.7945 22.5679 42.4048 22.6139 43.1432 22.6139C43.7026 22.6139 44.2895 22.5714 44.8555 22.5307C45.4458 22.4869 46.014 22.4461 46.5002 22.4461C46.9865 22.4461 47.556 22.4869 48.1446 22.5307C48.711 22.5714 49.2974 22.6139 49.8573 22.6139C50.5952 22.6139 51.2056 22.5679 51.2056 22.3581C51.2056 21.5807 50.4045 20.3458 49.3758 19.2758ZM46.5207 14.979C47.9543 14.979 49.745 16.1184 51.1494 17.577C52.5696 19.052 53.6732 20.9355 53.6732 22.3581C53.6732 24.5819 51.9457 25.0714 49.8573 25.0714C49.2569 25.0714 48.6022 25.0237 47.9713 24.9782C47.4489 24.9409 46.9439 24.9036 46.5002 24.9036C46.0562 24.9036 45.5512 24.9409 45.0292 24.9782C44.3983 25.0237 43.7436 25.0714 43.1432 25.0714C41.0548 25.0714 39.3268 24.5819 39.3268 22.3581C39.3268 20.9355 40.4392 19.0555 41.8659 17.5835C43.2825 16.1219 45.0871 14.979 46.5207 14.979Z" fill="#EB5757"/>
<path fill-rule="evenodd" clip-rule="evenodd" d="M65.535 71.6387C62.7864 73.6735 59.7231 75.2484 56.4656 76.3014C53.1094 77.3219 49.6141 77.815 46.1054 77.763V77.7682C42.9857 77.7297 39.8927 77.1898 36.9459 76.1692C33.6396 75.0414 30.489 73.5034 27.5687 71.5915L28.9191 69.5454C31.662 71.3414 34.621 72.7862 37.7265 73.8456C40.4221 74.7797 43.2514 75.2744 46.1054 75.3107V75.3159C49.3629 75.3638 52.6081 74.9061 55.7242 73.9592C58.7283 72.985 61.5531 71.5303 64.0879 69.6521L65.535 71.6387Z" fill="#EB5757"/>
<path fill-rule="evenodd" clip-rule="evenodd" d="M25.7881 52.3175C23.5533 50.0925 20.6131 48.708 17.4683 48.3998C14.3235 48.0917 11.1687 48.8791 8.54142 50.6278C5.91416 52.3764 3.97698 54.9782 3.05994 57.9899C2.1429 61.0015 2.30274 64.2367 3.51222 67.1441C4.72171 70.0515 6.90599 72.4513 9.69294 73.9347C12.4799 75.4181 15.697 75.8932 18.7963 75.2791C21.8955 74.665 24.6851 72.9997 26.6897 70.5669C28.6943 68.1341 29.7899 65.0844 29.7899 61.9373C29.7924 60.1503 29.4401 58.3804 28.7533 56.7295C28.0665 55.0786 27.0588 53.5792 25.7881 52.3175ZM16.1288 45.8745C19.8607 45.8741 23.4773 47.1625 26.3624 49.52C29.2475 51.8776 31.2225 55.1585 31.9508 58.8037C32.6792 62.449 32.1159 66.2329 30.3569 69.5109C28.5979 72.7888 25.752 75.358 22.3042 76.7805C18.8564 78.203 15.02 78.3908 11.4487 77.3121C7.87742 76.2333 4.7922 73.9547 2.71875 70.8644C0.645306 67.7742 -0.288069 64.0635 0.0776764 60.3647C0.443421 56.6659 2.08565 53.2078 4.72454 50.5797C6.22025 49.0856 7.99782 47.9007 9.95498 47.0932C11.9121 46.2857 14.0103 45.8716 16.1288 45.8745Z" fill="#EB5757"/>
<path fill-rule="evenodd" clip-rule="evenodd" d="M18.0574 56.1808C17.6111 55.7355 17.0236 55.458 16.395 55.3958C15.7663 55.3335 15.1355 55.4903 14.6099 55.8394C14.0844 56.1885 13.6966 56.7084 13.5128 57.3103C13.329 57.9122 13.3605 58.559 13.6019 59.1404C13.8434 59.7218 14.2798 60.2019 14.8368 60.4987C15.3938 60.7955 16.0369 60.8908 16.6566 60.7683C17.2762 60.6457 17.834 60.3129 18.2349 59.8267C18.6358 59.3404 18.8549 58.7307 18.8549 58.1016C18.8556 57.7449 18.7855 57.3916 18.6486 57.0619C18.5117 56.7323 18.3108 56.4329 18.0574 56.1808ZM16.1287 52.9272C17.331 52.927 18.4961 53.342 19.4256 54.1015C20.3551 54.8609 20.9914 55.9179 21.2261 57.0922C21.4608 58.2665 21.2793 59.4855 20.7127 60.5415C20.1461 61.5976 19.2293 62.4252 18.1186 62.8835C17.0079 63.3418 15.772 63.4024 14.6215 63.0549C13.471 62.7074 12.4771 61.9734 11.8091 60.9778C11.1411 59.9823 10.8404 58.7869 10.9582 57.5953C11.076 56.4037 11.605 55.2897 12.4552 54.443C12.937 53.9618 13.5096 53.5802 14.1401 53.3201C14.7705 53.0599 15.4463 52.9264 16.1287 52.9272Z" fill="#EB5757"/>
<path fill-rule="evenodd" clip-rule="evenodd" d="M19.0043 65.15C18.0095 64.1185 16.8788 63.3125 16.1492 63.3125C15.4143 63.3125 14.2715 64.1203 13.2684 65.157C12.231 66.2275 11.4229 67.4588 11.4229 68.2328C11.4229 68.4426 12.0337 68.4886 12.7717 68.4886C13.3294 68.4886 13.918 68.4461 14.4844 68.4053C15.0725 68.3615 15.6424 68.3208 16.1287 68.3208C16.615 68.3208 17.1832 68.3615 17.7731 68.4053C18.3395 68.4461 18.9263 68.4886 19.4858 68.4886C20.2237 68.4886 20.8345 68.4426 20.8345 68.2328C20.8345 67.4554 20.0335 66.2205 19.0043 65.15ZM16.1492 60.855C17.5828 60.855 19.3734 61.9931 20.7784 63.4513C22.1981 64.9267 23.3021 66.8098 23.3021 68.2328C23.3021 70.4566 21.5742 70.9461 19.4858 70.9461C18.8854 70.9461 18.2306 70.8984 17.5998 70.8529C17.0778 70.8156 16.5728 70.7783 16.1287 70.7783C15.6847 70.7783 15.1796 70.8156 14.6576 70.8529C14.0268 70.8984 13.372 70.9461 12.7717 70.9461C10.6833 70.9461 8.95532 70.4566 8.95532 68.2328C8.95532 66.8098 10.0677 64.9302 11.4943 63.4582C12.911 61.9966 14.7155 60.855 16.1492 60.855Z" fill="#EB5757"/>
<path fill-rule="evenodd" clip-rule="evenodd" d="M86.531 52.3175C84.2963 50.0921 81.3559 48.7073 78.2108 48.3989C75.0657 48.0905 71.9106 48.8778 69.283 50.6265C66.6554 52.3752 64.7179 54.9771 63.8006 57.989C62.8834 61.0008 63.0431 64.2362 64.2526 67.144C65.462 70.0517 67.6464 72.4519 70.4336 73.9354C73.2208 75.419 76.4382 75.8942 79.5377 75.2801C82.6373 74.6661 85.4271 73.0006 87.4319 70.5677C89.4367 68.1347 90.5325 65.0847 90.5324 61.9373C90.5349 60.1504 90.1826 58.3806 89.4959 56.7296C88.8092 55.0787 87.8016 53.5793 86.531 52.3175ZM76.8713 45.8745C80.603 45.8742 84.2194 47.1625 87.1043 49.52C89.9892 51.8775 91.964 55.1583 92.6923 58.8033C93.4206 62.4483 92.8573 66.2321 91.0984 69.5098C89.3395 72.7876 86.4937 75.3566 83.0461 76.779C79.5985 78.2014 75.7623 78.3893 72.1912 77.3106C68.6201 76.232 65.535 73.9535 63.4617 70.8634C61.3883 67.7733 60.455 64.0629 60.8206 60.3642C61.1863 56.6656 62.8284 53.2077 65.4671 50.5797C66.9628 49.0856 68.7403 47.9007 70.6975 47.0932C72.6547 46.2857 74.7528 45.8716 76.8713 45.8745Z" fill="#EB5757"/>
<path fill-rule="evenodd" clip-rule="evenodd" d="M78.7999 56.1808C78.3538 55.737 77.767 55.4609 77.1394 55.3996C76.5118 55.3383 75.8823 55.4955 75.3581 55.8446C74.8339 56.1937 74.4474 56.713 74.2645 57.314C74.0816 57.915 74.1136 58.5606 74.3551 59.1408C74.5965 59.721 75.0324 60.1998 75.5886 60.4958C76.1448 60.7918 76.7868 60.8865 77.4053 60.764C78.0237 60.6414 78.5804 60.3091 78.9804 59.8236C79.3805 59.3382 79.5992 58.7296 79.5992 58.1016C79.5997 57.7448 79.5293 57.3914 79.3921 57.0617C79.255 56.7321 79.0537 56.4327 78.7999 56.1808ZM76.8713 52.9273C78.0728 52.9272 79.2371 53.3421 80.1659 54.1011C81.0947 54.8602 81.7305 55.9165 81.965 57.0901C82.1995 58.2637 82.0182 59.4819 81.4519 60.5373C80.8856 61.5926 79.9695 62.4198 78.8595 62.8779C77.7495 63.3359 76.5144 63.3965 75.3646 63.0493C74.2147 62.7022 73.2214 61.9687 72.5537 60.9739C71.886 59.9791 71.5852 58.7845 71.7028 57.5937C71.8203 56.4028 72.3488 55.2894 73.1981 54.443C73.6799 53.9618 74.2524 53.5801 74.8828 53.32C75.5131 53.0599 76.1889 52.9264 76.8713 52.9273Z" fill="#EB5757"/>
<path fill-rule="evenodd" clip-rule="evenodd" d="M79.7472 65.15C78.7524 64.1185 77.6231 63.3125 76.8917 63.3125C76.1572 63.3125 75.0144 64.1203 74.0109 65.157C72.9734 66.2275 72.1659 67.4588 72.1659 68.2328C72.1659 68.4426 72.7762 68.4886 73.5142 68.4886C74.074 68.4886 74.6605 68.4461 75.2269 68.4053C75.8172 68.3615 76.3849 68.3208 76.8712 68.3208C77.3579 68.3208 77.9274 68.3615 78.516 68.4053C79.0824 68.4461 79.6706 68.4886 80.2283 68.4886C80.9666 68.4886 81.577 68.4426 81.577 68.2328C81.577 67.4554 80.776 66.2205 79.7472 65.15ZM76.8917 60.855C78.3253 60.855 80.1164 61.9931 81.5208 63.4513C82.941 64.9267 84.0463 66.8098 84.0463 68.2328C84.0463 70.4566 82.3184 70.9461 80.2283 70.9461C79.6279 70.9461 78.9736 70.8984 78.3423 70.8529C77.8203 70.8156 77.317 70.7783 76.8712 70.7783C76.4276 70.7783 75.9226 70.8156 75.4006 70.8529C74.7693 70.8984 74.1145 70.9461 73.5142 70.9461C71.4262 70.9461 69.6982 70.4566 69.6982 68.2328C69.6982 66.8098 70.8106 64.9302 72.2373 63.4582C73.6539 61.9966 75.4581 60.855 76.8917 60.855H76.8917Z" fill="#EB5757"/>
</g>
<defs>
<clipPath id="clip0">
<rect width="93" height="78" fill="white"/>
</clipPath>
</defs>
</svg>
