<svg width="116" height="96" viewBox="0 0 116 96" fill="none" xmlns="http://www.w3.org/2000/svg">
<path d="M81.1545 4.57766C69.5898 -0.192554 56.596 -0.192554 45.0314 4.57766C33.4667 9.34788 24.2787 18.4976 19.4885 30.0139C14.6983 41.5302 14.6983 54.4698 19.4885 65.9861C24.2787 77.5024 33.4667 86.6521 45.0314 91.4223C56.596 96.1926 69.5898 96.1926 81.1545 91.4223C81.6433 91.2207 82.1278 91.0113 82.608 90.7941C85.8446 89.3306 84.4562 84.613 81.0187 83.7116C79.4105 83.2898 77.8238 82.7585 76.27 82.1176C67.1835 78.3696 59.9643 71.1805 56.2006 62.132C52.4369 53.0835 52.4369 42.9166 56.2006 33.8681C59.9643 24.8196 67.1835 17.6305 76.27 13.8825C77.8239 13.2416 79.4106 12.7102 81.0189 12.2885C84.4563 11.3871 85.8448 6.66949 82.6082 5.20594C82.1279 4.98879 81.6433 4.77931 81.1545 4.57766Z" stroke="#EB5757" stroke-width="2" stroke-linecap="round" stroke-linejoin="round"/>
<path d="M88.8437 24.5L93.9673 37.491L106.958 42.6146L93.9673 47.7382L88.8437 60.7292L83.7202 47.7382L70.7291 42.6146L83.7202 37.491L88.8437 24.5Z" stroke="#EB5757" stroke-width="2" stroke-linecap="round" stroke-linejoin="round"/>
<path d="M109.284 63.6667L111.544 66.9144L114.792 69.1745L111.544 71.4345L109.284 74.6823L107.024 71.4345L103.776 69.1745L107.024 66.9144L109.284 63.6667Z" stroke="#EB5757" stroke-width="2" stroke-linecap="round" stroke-linejoin="round"/>
<path d="M6.71613 3.9375L8.97619 7.18525L12.2239 9.44531L8.97619 11.7054L6.71613 14.9531L4.45606 11.7054L1.20831 9.44531L4.45606 7.18525L6.71613 3.9375Z" stroke="#EB5757" stroke-width="2" stroke-linecap="round" stroke-linejoin="round"/>
</svg>
