<svg width="96" height="95" viewBox="0 0 96 95" fill="none" xmlns="http://www.w3.org/2000/svg">
<path d="M49.3475 65.8918L47.4861 67.7693C48.0028 67.5206 48.5075 67.2356 48.9964 66.9141C49.1016 66.5688 49.2188 66.2278 49.3475 65.8918ZM49.3475 65.8918L58.0732 57.0911M49.3475 65.8918C48.6805 67.6327 48.324 69.5065 48.324 71.4308L48.324 72.4702L48.3243 72.569C48.324 72.6187 48.3238 72.6685 48.3238 72.7183C48.3238 80.3228 52.4461 87.3917 58.9923 91.1645C65.552 94.9452 73.7696 94.9452 80.3293 91.1645C83.2999 89.4524 85.7713 87.0616 87.585 84.2499C86.7017 83.9902 85.8407 83.6275 85.0199 83.1619L84.7825 83.0271C81.09 80.9323 78.8049 76.9915 78.8049 72.7185C78.8049 72.5762 78.8075 72.4343 78.8125 72.2927H78.8054V71.4308C78.8054 66.0312 75.9966 61.0276 71.406 58.2496C67.3363 55.7867 62.4111 55.4006 58.0732 57.0911M58.0732 57.0911L60.0316 55.1158C59.7708 55.667 59.4698 56.2046 59.1283 56.7241C58.7734 56.833 58.4213 56.9555 58.0732 57.0911ZM79.0497 35.9157L60.3802 17.0855M46.1855 31.4001L17.8228 10.3023C13.6207 7.17651 7.78419 7.61866 4.09213 11.3425C0.400567 15.0658 -0.0382602 20.9515 3.0597 25.1898L23.9741 53.8026L46.1855 31.4001ZM74.394 2.94885C76.9703 0.350383 81.1473 0.350384 83.7236 2.94885L93.0635 12.3691C95.6455 14.9733 95.6455 19.1955 93.0635 21.7997L28.6307 86.7869C26.5099 88.9259 23.7304 90.2733 20.7495 90.6074L6.44119 92.2109C5.36384 92.3316 4.45351 91.4134 4.57321 90.3268L6.16302 75.8954C6.49424 72.8888 7.83012 70.0854 9.95094 67.9464L74.394 2.94885Z" stroke="#EB5757" stroke-width="2" stroke-linecap="round" stroke-linejoin="round"/>
</svg>
