<svg width="61" height="60" viewBox="0 0 61 60" fill="none" xmlns="http://www.w3.org/2000/svg">
<path d="M11.559 6.80144L29.3611 19.9592L15.4199 33.9306L2.29279 16.0861C0.348326 13.4429 0.62376 9.77223 2.9408 7.45015C5.25816 5.12777 8.9215 4.85202 11.559 6.80144Z" fill="#EB5757"/>
<path d="M31.1254 42.1077C30.8185 42.3082 30.5018 42.486 30.1774 42.6411L31.3458 41.4702C31.265 41.6797 31.1915 41.8923 31.1254 42.1077Z" fill="#EB5757"/>
<path d="M36.8225 35.9815L31.3458 41.4702C30.9271 42.5559 30.7034 43.7245 30.7034 44.9246L30.7034 45.5728L30.7036 45.6344C30.7034 45.6654 30.7032 45.6965 30.7032 45.7276C30.7032 50.4701 33.2907 54.8787 37.3994 57.2316C41.5167 59.5895 46.6745 59.5895 50.7918 57.2316C52.6563 56.1639 54.2075 54.6728 55.3459 52.9193C54.7915 52.7573 54.2511 52.5312 53.7359 52.2407L53.5869 52.1567C51.2693 50.8502 49.835 48.3925 49.835 45.7277C49.835 45.6389 49.8366 45.5504 49.8398 45.4621H49.8353V44.9246C49.8353 41.5571 48.0723 38.4366 45.191 36.704C42.6366 35.1681 39.5453 34.9272 36.8225 35.9815Z" fill="#EB5757"/>
<path d="M38.0517 34.7497L36.8225 35.9815C37.041 35.8969 37.262 35.8206 37.4848 35.7527C37.6991 35.4287 37.888 35.0934 38.0517 34.7497Z" fill="#EB5757"/>
<path d="M52.9223 2.21541C51.3052 0.594863 48.6835 0.594862 47.0665 2.21541L6.61814 42.7515C5.28699 44.0855 4.44851 45.8339 4.24062 47.709L3.24276 56.7092C3.16763 57.3869 3.739 57.9595 4.41522 57.8842L13.3959 56.8842C15.267 56.6758 17.0115 55.8355 18.3427 54.5015L58.7845 13.9719C60.4052 12.3477 60.4052 9.71452 58.7845 8.0904L52.9223 2.21541Z" fill="#EB5757"/>
<path d="M31.3458 41.4702L30.1774 42.6411C30.5018 42.486 30.8185 42.3082 31.1254 42.1077C31.1915 41.8923 31.265 41.6797 31.3458 41.4702ZM31.3458 41.4702L36.8225 35.9815M31.3458 41.4702C30.9271 42.5559 30.7034 43.7245 30.7034 44.9246L30.7034 45.5728L30.7036 45.6344C30.7034 45.6654 30.7032 45.6965 30.7032 45.7276C30.7032 50.4701 33.2907 54.8787 37.3994 57.2316C41.5167 59.5895 46.6745 59.5895 50.7918 57.2316C52.6563 56.1639 54.2075 54.6728 55.3459 52.9193C54.7915 52.7573 54.2511 52.5312 53.7359 52.2407L53.5869 52.1567C51.2693 50.8502 49.835 48.3925 49.835 45.7277C49.835 45.6389 49.8366 45.5504 49.8398 45.4621H49.8353V44.9246C49.8353 41.5571 48.0723 38.4366 45.191 36.704C42.6366 35.1681 39.5453 34.9272 36.8225 35.9815M36.8225 35.9815L38.0517 34.7497C37.888 35.0934 37.6991 35.4287 37.4848 35.7527C37.262 35.8206 37.041 35.8969 36.8225 35.9815ZM49.9886 22.7754L38.2705 11.0318M29.3611 19.9592L11.559 6.80144C8.9215 4.85202 5.25816 5.12777 2.9408 7.45015C0.62376 9.77223 0.348326 13.4429 2.29279 16.0861L15.4199 33.9306L29.3611 19.9592ZM47.0665 2.21541C48.6835 0.594862 51.3052 0.594863 52.9223 2.21541L58.7845 8.0904C60.4052 9.71452 60.4052 12.3477 58.7845 13.9719L18.3427 54.5015C17.0115 55.8355 15.267 56.6758 13.3959 56.8842L4.41522 57.8842C3.739 57.9595 3.16763 57.3869 3.24276 56.7092L4.24062 47.709C4.44851 45.8339 5.28699 44.0855 6.61814 42.7515L47.0665 2.21541Z" stroke="white" stroke-width="2" stroke-linecap="round" stroke-linejoin="round"/>
</svg>
