<svg width="26" height="26" viewBox="0 0 26 26" fill="none" xmlns="http://www.w3.org/2000/svg">
<path d="M10.1465 11.5722C11.163 13.358 12.642 14.837 14.4278 15.8535L15.3855 14.5123C15.5395 14.2967 15.7672 14.145 16.0255 14.0859C16.2839 14.0268 16.5549 14.0644 16.7873 14.1917C18.3195 15.029 20.0116 15.5326 21.7523 15.6693C22.0239 15.6909 22.2775 15.814 22.4624 16.0142C22.6474 16.2144 22.75 16.4769 22.75 16.7494V21.5833C22.7501 21.8515 22.6506 22.1102 22.4709 22.3093C22.2912 22.5084 22.044 22.6338 21.7772 22.6612C21.203 22.7208 20.6245 22.75 20.0417 22.75C10.7683 22.75 3.25 15.2317 3.25 5.95833C3.25 5.3755 3.27925 4.797 3.33883 4.22283C3.36619 3.95601 3.49157 3.70881 3.69069 3.5291C3.88981 3.34939 4.14852 3.24994 4.41675 3.25H9.25058C9.52311 3.24997 9.78564 3.35265 9.98582 3.53757C10.186 3.7225 10.3091 3.97608 10.3307 4.24775C10.4674 5.98844 10.971 7.68049 11.8083 9.21267C11.9356 9.44511 11.9732 9.71614 11.9141 9.97446C11.855 10.2328 11.7033 10.4605 11.4877 10.6145L10.1465 11.5722ZM7.41433 10.8604L9.47267 9.39033C8.88851 8.12944 8.4883 6.79124 8.28425 5.41667H5.4275C5.421 5.5965 5.41775 5.77742 5.41775 5.95833C5.41667 14.0357 11.9643 20.5833 20.0417 20.5833C20.2226 20.5833 20.4035 20.5801 20.5833 20.5725V17.7158C19.2088 17.5117 17.8706 17.1115 16.6097 16.5273L15.1396 18.5857C14.5477 18.3557 13.9728 18.0842 13.4193 17.7732L13.3564 17.7374C11.2315 16.5281 9.47189 14.7685 8.26258 12.6436L8.22683 12.5808C7.91582 12.0272 7.64431 11.4523 7.41433 10.8604Z" fill="#313131"/>
</svg>
