<svg width="27" height="26" viewBox="0 0 27 26" fill="none" xmlns="http://www.w3.org/2000/svg">
<path d="M10.6465 11.5722C11.663 13.358 13.142 14.837 14.9278 15.8535L15.8855 14.5123C16.0395 14.2967 16.2672 14.145 16.5255 14.0859C16.7839 14.0268 17.0549 14.0644 17.2873 14.1917C18.8195 15.029 20.5116 15.5326 22.2523 15.6693C22.5239 15.6909 22.7775 15.814 22.9624 16.0142C23.1474 16.2144 23.25 16.4769 23.25 16.7494V21.5833C23.2501 21.8515 23.1506 22.1102 22.9709 22.3093C22.7912 22.5084 22.544 22.6338 22.2772 22.6612C21.703 22.7208 21.1245 22.75 20.5417 22.75C11.2683 22.75 3.75 15.2317 3.75 5.95833C3.75 5.3755 3.77925 4.797 3.83883 4.22283C3.86619 3.95601 3.99157 3.70881 4.19069 3.5291C4.38981 3.34939 4.64852 3.24994 4.91675 3.25H9.75058C10.0231 3.24997 10.2856 3.35265 10.4858 3.53757C10.686 3.7225 10.8091 3.97608 10.8307 4.24775C10.9674 5.98844 11.471 7.68049 12.3083 9.21267C12.4356 9.44511 12.4732 9.71614 12.4141 9.97446C12.355 10.2328 12.2033 10.4605 11.9877 10.6145L10.6465 11.5722ZM7.91433 10.8604L9.97267 9.39033C9.38851 8.12944 8.9883 6.79124 8.78425 5.41667H5.9275C5.921 5.5965 5.91775 5.77742 5.91775 5.95833C5.91667 14.0357 12.4643 20.5833 20.5417 20.5833C20.7226 20.5833 20.9035 20.5801 21.0833 20.5725V17.7158C19.7088 17.5117 18.3706 17.1115 17.1097 16.5273L15.6396 18.5857C15.0477 18.3557 14.4728 18.0842 13.9193 17.7732L13.8564 17.7374C11.7315 16.5281 9.97189 14.7685 8.76258 12.6436L8.72683 12.5808C8.41582 12.0272 8.14431 11.4523 7.91433 10.8604Z" fill="white"/>
</svg>
