<svg width="33" height="33" viewBox="0 0 33 33" fill="none" xmlns="http://www.w3.org/2000/svg">
<path d="M19.0875 18.4406V11.325C19.0875 9.9525 18.5422 8.63622 17.5717 7.66572C16.6012 6.69522 15.285 6.15 13.9125 6.15C12.54 6.15 11.2237 6.69522 10.2532 7.66572C9.28268 8.63622 8.73746 9.9525 8.73746 11.325V18.4406C8.73746 20.6709 9.62345 22.8099 11.2005 24.387C12.7776 25.964 14.9165 26.85 17.1468 26.85C19.3771 26.85 21.5161 25.964 23.0932 24.387C24.6702 22.8099 25.5562 20.6709 25.5562 18.4406V6.15H28.1437V18.4406C28.1437 21.3572 26.9851 24.1543 24.9228 26.2166C22.8605 28.2789 20.0634 29.4375 17.1468 29.4375C14.2303 29.4375 11.4332 28.2789 9.37087 26.2166C7.30856 24.1543 6.14996 21.3572 6.14996 18.4406V11.325C6.14996 9.26626 6.9678 7.29183 8.42355 5.83608C9.8793 4.38033 11.8537 3.5625 13.9125 3.5625C15.9712 3.5625 17.9456 4.38033 19.4014 5.83608C20.8571 7.29183 21.675 9.26626 21.675 11.325V18.4406C21.675 19.6416 21.1979 20.7933 20.3487 21.6425C19.4995 22.4917 18.3478 22.9688 17.1468 22.9688C15.9459 22.9688 14.7942 22.4917 13.945 21.6425C13.0958 20.7933 12.6187 19.6416 12.6187 18.4406V11.325H15.2062V18.4406C15.2062 18.9553 15.4107 19.4489 15.7746 19.8129C16.1385 20.1768 16.6322 20.3813 17.1468 20.3813C17.6615 20.3813 18.1551 20.1768 18.5191 19.8129C18.883 19.4489 19.0875 18.9553 19.0875 18.4406Z" fill="white"/>
</svg>
