<svg width="48" height="104" viewBox="0 0 48 104" fill="none" xmlns="http://www.w3.org/2000/svg">
<line x1="25.5" y1="55" x2="25.5" y2="104" stroke="#0F65D9" stroke-width="3"/>
<path d="M22.282 4.4C19.118 4.4 17.508 4.7718 16.026 5.643C14.79 6.35833 13.7803 7.46905 13.13 8.8286C12.338 10.4566 12 12.2298 12 15.708V28.2876C12 31.768 12.338 33.539 13.13 35.1692C13.804 36.5552 14.766 37.6134 16.026 38.3548C17.506 39.226 19.118 39.5978 22.282 39.5978H25.718C28.882 39.5978 30.492 39.226 31.974 38.3548C33.21 37.6395 34.2197 36.5288 34.87 35.1692C35.662 33.5412 36 31.768 36 28.2876V15.708C36 12.2276 35.662 10.4566 34.87 8.8264C34.2197 7.46685 33.21 6.35613 31.974 5.6408C30.494 4.7718 28.882 4.4 25.72 4.4H22.28H22.282ZM22.282 0H25.718C29.746 0 31.906 0.6116 33.862 1.7622C35.7946 2.88748 37.375 4.62592 38.398 6.7518C39.444 8.9034 40 11.2794 40 15.7102V28.2898C40 32.7206 39.444 35.0966 38.398 37.2482C37.375 39.3741 35.7946 41.1125 33.862 42.2378C31.906 43.3884 29.746 44 25.718 44H22.28C18.252 44 16.092 43.3884 14.136 42.2378C12.2034 41.1125 10.623 39.3741 9.6 37.2482C8.556 35.0966 8 32.7206 8 28.2898V15.708C8 11.2772 8.556 8.9012 9.602 6.7496C10.6258 4.62422 12.2069 2.88654 14.14 1.7622C16.094 0.6116 18.254 0 22.282 0ZM22 8.8H26V19.8H22V8.8Z" fill="#0F65D9"/>
</svg>
