<svg width="269" height="34" viewBox="0 0 269 34" fill="none" xmlns="http://www.w3.org/2000/svg">
<g opacity="0.4">
<line y1="-0.5" x2="34.8878" y2="-0.5" transform="matrix(-0.725787 0.68792 -0.725787 -0.68792 53.3211 0)" stroke="#414141"/>
<line y1="-0.5" x2="34.8878" y2="-0.5" transform="matrix(-0.725787 0.68792 -0.725787 -0.68792 67.6331 0)" stroke="#414141"/>
<line y1="-0.5" x2="34.8878" y2="-0.5" transform="matrix(-0.725787 0.68792 -0.725787 -0.68792 81.945 0)" stroke="#414141"/>
<line y1="-0.5" x2="34.8878" y2="-0.5" transform="matrix(-0.725787 0.68792 -0.725787 -0.68792 96.257 0)" stroke="#414141"/>
<line y1="-0.5" x2="34.8878" y2="-0.5" transform="matrix(-0.725787 0.68792 -0.725787 -0.68792 110.569 0)" stroke="#414141"/>
<line y1="-0.5" x2="34.8878" y2="-0.5" transform="matrix(-0.725787 0.68792 -0.725787 -0.68792 124.881 0)" stroke="#414141"/>
<line y1="-0.5" x2="34.8878" y2="-0.5" transform="matrix(-0.725787 0.68792 -0.725787 -0.68792 139.193 0)" stroke="#414141"/>
<line y1="-0.5" x2="34.8878" y2="-0.5" transform="matrix(-0.725787 0.68792 -0.725787 -0.68792 153.505 0)" stroke="#414141"/>
<line y1="-0.5" x2="34.8878" y2="-0.5" transform="matrix(-0.725787 0.68792 -0.725787 -0.68792 167.817 0)" stroke="#414141"/>
<line y1="-0.5" x2="34.8878" y2="-0.5" transform="matrix(-0.725787 0.68792 -0.725787 -0.68792 182.129 0)" stroke="#414141"/>
<line y1="-0.5" x2="34.8878" y2="-0.5" transform="matrix(-0.725787 0.68792 -0.725787 -0.68792 196.441 0)" stroke="#414141"/>
<line y1="-0.5" x2="34.8878" y2="-0.5" transform="matrix(-0.725787 0.68792 -0.725787 -0.68792 210.752 0)" stroke="#414141"/>
<line y1="-0.5" x2="34.8878" y2="-0.5" transform="matrix(-0.725787 0.68792 -0.725787 -0.68792 225.064 0)" stroke="#414141"/>
<line y1="-0.5" x2="34.8878" y2="-0.5" transform="matrix(-0.725787 0.68792 -0.725787 -0.68792 239.376 0)" stroke="#414141"/>
<line y1="-0.5" x2="34.8878" y2="-0.5" transform="matrix(-0.725787 0.68792 -0.725787 -0.68792 253.688 0)" stroke="#414141"/>
<line y1="-0.5" x2="34.8878" y2="-0.5" transform="matrix(-0.725787 0.68792 -0.725787 -0.68792 268 0)" stroke="#414141"/>
</g>
<rect y="24" width="67" height="10" fill="#EB5757"/>
</svg>
